<?xml version="1.0" encoding="utf-8"?>
<!-- Generator: Adobe Illustrator 16.0.0, SVG Export Plug-In . SVG Version: 6.00 Build 0)  -->
<!DOCTYPE svg PUBLIC "-//W3C//DTD SVG 1.1//EN" "http://www.w3.org/Graphics/SVG/1.1/DTD/svg11.dtd">
<svg version="1.1" id="Layer_1" xmlns="http://www.w3.org/2000/svg" xmlns:xlink="http://www.w3.org/1999/xlink" x="0px" y="0px"
	 width="120px" height="32px" viewBox="0 0 111.201 32" enable-background="new 0 0 111.201 32" xml:space="preserve">
<title>logo-footer</title>
<desc>Created with Sketch.</desc>
<g id="Page-1">
	<g id="White" transform="translate(-1225.000000, -784.000000)">
		<g id="logo-footer" transform="translate(1225.000000, 784.000000)">
			<polyline id="Fill-3" fill="#44BEE2" points="0,6.4 0,32 12.733,32 12.733,19.2 25.465,19.2 25.465,6.4 0,6.4 			"/>
			<polyline id="Fill-9" fill="#4D5B99" points="6.366,0 6.366,25.6 19.099,25.6 19.099,12.8 31.832,12.8 31.832,0 6.366,0 			"/>
			<polyline id="Fill-10" fill="#FFFFFE" points="6.366,25.6 12.733,25.6 12.733,19.2 19.099,19.2 19.099,12.8 25.465,12.8 
				25.465,6.4 6.366,6.4 6.366,25.6 			"/>
		</g>
	</g>
</g>
<rect x="35.867" y="3.833" fill="none" width="75.334" height="28.167"/>
<text transform="matrix(1 0 0 1 35.8672 22.9951)" fill="#FFFFFF" stroke="#FFFFFF" stroke-width="0.4" stroke-miterlimit="10" font-family="'TrebuchetMS'" font-size="26">rezque</text>
</svg>
