<?xml version="1.0" encoding="utf-8"?>
<!-- Generator: Adobe Illustrator 16.0.0, SVG Export Plug-In . SVG Version: 6.00 Build 0)  -->
<!DOCTYPE svg PUBLIC "-//W3C//DTD SVG 1.1//EN" "http://www.w3.org/Graphics/SVG/1.1/DTD/svg11.dtd">
<svg version="1.1" id="Layer_1" xmlns="http://www.w3.org/2000/svg" xmlns:xlink="http://www.w3.org/1999/xlink" x="0px" y="0px"
	 width="140px" height="32px" viewBox="0 0 140 32" enable-background="new 0 0 140 32" xml:space="preserve">
<title>logo</title>
<desc>Created with Sketch.</desc>
<g id="Page-1">
	<g id="Blue" transform="translate(-1225.000000, -784.000000)">
		<g id="logo" transform="translate(1225.000000, 784.000000)">
			<polyline id="Fill-5" fill="#44BEE2" points="0,6.4 0,32 12.733,32 12.733,19.2 25.465,19.2 25.465,6.4 0,6.4 			"/>
			<polyline id="Fill-11" fill="#4D5B99" points="6.366,0 6.366,25.6 19.099,25.6 19.099,12.8 31.832,12.8 31.832,0 6.366,0 			"/>
			<polyline id="Fill-12" fill="#2A2863" points="6.366,25.6 12.733,25.6 12.733,19.2 19.099,19.2 19.099,12.8 25.465,12.8 
				25.465,6.4 6.366,6.4 6.366,25.6 			"/>
		</g>
	</g>
</g>
<rect x="40.165" y="-2.183" fill="none" width="117.085" height="36.367"/>
<text transform="matrix(1 0 0 1 40.165 22.875)" stroke="#000000" stroke-width="0.4" stroke-miterlimit="10" font-family="'TrebuchetMS'" font-size="34" letter-spacing="-1">rezque</text>
</svg>
